<svg xmlns="http://www.w3.org/2000/svg" viewBox="0 0 352.29 104.53"><defs><style>.cls-1{fill:#4c8b2b;}.cls-2{fill:#76b72a;}.cls-3{fill:#ba3159;}.cls-4{fill:#4c8a33;}.cls-5{fill:#3f4e55;}.cls-6{fill:#75b62d;}.cls-7{fill:#4c8b33;}</style></defs><title>JR-Logo®-RGB-color</title><g id="Ebene_2" data-name="Ebene 2"><g id="Ebene_2-2" data-name="Ebene 2"><path class="cls-1" d="M49.65,74.18c4.3-21,11.52-29.67,29.76-29.67,16.85,0,25.11,9.29,20.89,29.67C96,95.33,88.44,104.53,70,104.53,53.35,104.53,45.35,94.9,49.65,74.18Zm35.09,0c2.75-13-.12-16.82-6.65-16.82-7.23,0-10.12,3.83-13,16.82-2.84,13.67.17,17.2,6.71,17.2C79.06,91.38,81.81,87.85,84.74,74.18Z"/><path class="cls-1" d="M117.25,45.71h17.2c15.31,0,20.13,5.25,18.24,15.48A14,14,0,0,1,142,72.8c5.08,1,8.86,5.08,7.31,13.16-2.23,11.09-9.2,17.37-22.53,17.37H105.3c-2.24,0-2.92-.6-2.41-2.92l11-51.77C114.42,46.31,115,45.71,117.25,45.71Zm5.22,33.37-2.66,12.47h7.3c4.56,0,6.71-2.15,7.48-6.36.78-4-.85-6.11-5.76-6.11ZM127,57.41l-2.58,12.38h5.42c4.72,0,7.22-2.06,8.08-6.28s-.69-6.1-5.16-6.1Z"/><path class="cls-1" d="M173.21,45.71h18.32c14.27,0,20.29,5.76,17.8,18.66-1.63,8.86-5.59,14.45-12.64,17l5.07,16.17a16.5,16.5,0,0,1,.78,4.47c-.14,1.12-1,1.29-3,1.29h-9.46c-2,0-3-.6-3.53-2.66L182.84,83h-5l-3.69,17.37c-.52,2.32-1.12,2.92-3.36,2.92h-9.54c-2.32,0-2.93-.6-2.41-2.92l11-51.77C170.37,46.31,171,45.71,173.21,45.71Zm10,11.85-3,14.38h5.73c4.9,0,7.62-2.15,8.57-7.22s-1.18-7.16-5.73-7.16Z"/><path class="cls-1" d="M220.32,103.33H208.45c-1.54,0-1.89-.52-1.8-1.29s.26-1.2,1.37-3.35l26.15-50c1.37-2.58,1.89-2.93,4-2.93h14.11c2.15,0,2.92.26,3.18,2.93L259.79,98c.18,1.89.26,2.32.26,2.84,0,1.72-.86,2.49-3,2.49h-9.89c-2.23,0-2.92-.52-3-2.92l-.34-9.29H228.23l-4.3,9.37C222.82,103.07,222.47,103.33,220.32,103.33Zm23.19-23.56-.86-20.32-.1-1.58-.63,1.56-9,20.34Z"/><path class="cls-1" d="M280.29,45.71H296.2c18,0,25.8,7.66,21.59,28.55-4.47,22-11.44,29.07-31.13,29.07H268.34c-2.32,0-2.92-.6-2.41-2.92L277,48.64C277.46,46.31,278.06,45.71,280.29,45.71ZM290,58.36l-6.71,32h3.92c9.21,0,12.76-4.29,15.25-16.51,2.58-12.46-.45-15.53-9.57-15.53Z"/><path class="cls-2" d="M253.59,10a169.77,169.77,0,0,1,70.68,15.29c7.83,3.26,13.64,6.84,27.38,5.29h0c.51,0,.59-.45.64-.72s-.26-.5-.44-.61A179.7,179.7,0,0,0,155.71,29c-.31.2-1.15.79-1,1.15s.66.43.82.44c13.75,1.47,19.56-2,27.38-5.29A169.81,169.81,0,0,1,253.59,10Z"/><path class="cls-3" d="M33.3,45.29H18.05c-2.31,0-2.74.49-3.33,2.91l-1.65,7c-.51,2.18.17,2.91,2.4,2.91l13.61-.06h.25l2.6-11.69A1.4,1.4,0,0,1,33.3,45.29Z"/><path class="cls-4" d="M44.3,45.29h-11a1.4,1.4,0,0,0-1.37,1.1l-2.6,11.69,9.84.06a6.63,6.63,0,0,0,6.52-5.24l1-4.7C47.21,45.89,46.52,45.29,44.3,45.29Z"/><path class="cls-5" d="M44.3,45.29h-11a1.4,1.4,0,0,0-1.37,1.1l-2.6,11.69,9.84.06a6.63,6.63,0,0,0,6.52-5.24l1-4.7C47.21,45.89,46.52,45.29,44.3,45.29Z"/><polygon class="cls-6" points="27.81 65.18 27.81 65.18 27.8 65.26 27.81 65.18"/><path class="cls-2" d="M46.69,48.2l-1,4.7,0,.12.51-2.39L45.66,53a6.62,6.62,0,0,1-6.49,5.12l-9.84-.06-.09.42-1.43,6.68v.08l-.4,1.84-.11.51,0,.08L24.2,82.11a1.17,1.17,0,0,0,0,.5.75.75,0,0,0,.71.29c7.29-.57,14.46-3.58,17.13-12.8l.51-2.37a.08.08,0,0,1,0,0Z"/><path class="cls-2" d="M39.38,81.56c-.12-.54-.6-.09-.8.14-.65.74-1.16,1.6-1.83,2.33a16.14,16.14,0,0,1-4.3,3.32,27.07,27.07,0,0,1-9.94,2.76l-.1.45-.71,3.29-1,4.7a6.63,6.63,0,0,1-6.52,5.24c-.71,0-1.41,0-2.11-.05,1.61.08,3.21.11,4.81.05.51,0,1,0,1.52-.07a26.11,26.11,0,0,0,9.72-2.21c6.81-3.28,9.39-10.81,11-17.69A5.62,5.62,0,0,0,39.38,81.56Z"/><path class="cls-1" d="M21.67,90.19a68.29,68.29,0,0,1-8.58.2c-1.2,0-2.4-.09-3.6-.16-1.67-.1-3.34-.23-5-.38s-2.22,1-2.59,2.29C1.22,94.58.66,97.07.14,99.56c-.25,1.21-.31,2.38,1.06,2.89a11.69,11.69,0,0,0,2.21.44c.84.13,1.67.23,2.51.33s1.9.21,2.85.29c1.1.1,2.2.18,3.3.23.7,0,1.4.06,2.11.05a6.63,6.63,0,0,0,6.52-5.24l1-4.7.71-3.29.1-.45Z"/><path class="cls-1" d="M333.58,50.45v2h1c1,0,1.39-.3,1.39-1s-.33-1-1.43-1Zm-1-1H335c1.48,0,2.24.54,2.24,1.89A1.77,1.77,0,0,1,336,53.2l1.28,2.3a.62.62,0,0,1,.08.24c0,.07,0,.11-.15.11h-.82a.32.32,0,0,1-.35-.19l-1.17-2.35h-1.24v2.37c0,.13,0,.17-.15.17h-.89c-.13,0-.18,0-.18-.17v-6c0-.11.05-.15.18-.15m8.07,3.17c0-4.41-2.27-6.3-6.05-6.3-3.5,0-5.89,1.89-5.89,6.3,0,4.25,2.39,6.27,5.87,6.27,3.8,0,6.07-2,6.07-6.27m-13.35,0c0-4.84,2.65-7.51,7.28-7.51,4.9,0,7.51,2.67,7.51,7.51,0,4.67-2.61,7.51-7.54,7.51-4.6,0-7.25-2.84-7.25-7.51"/><path class="cls-7" d="M333.58,50.45v2h1c1,0,1.39-.3,1.39-1s-.33-1-1.43-1Zm-1-1H335c1.48,0,2.24.54,2.24,1.89A1.77,1.77,0,0,1,336,53.2l1.28,2.3a.62.62,0,0,1,.08.24c0,.07,0,.11-.15.11h-.82a.32.32,0,0,1-.35-.19l-1.17-2.35h-1.24v2.37c0,.13,0,.17-.15.17h-.89c-.13,0-.18,0-.18-.17v-6c0-.11.05-.15.18-.15m8.07,3.17c0-4.41-2.27-6.3-6.05-6.3-3.5,0-5.89,1.89-5.89,6.3,0,4.25,2.39,6.27,5.87,6.27,3.8,0,6.07-2,6.07-6.27m-13.35,0c0-4.84,2.65-7.51,7.28-7.51,4.9,0,7.51,2.67,7.51,7.51,0,4.67-2.61,7.51-7.54,7.51-4.6,0-7.25-2.84-7.25-7.51"/></g></g></svg>